<?xml version="1.0" encoding="UTF-8" standalone="no"?>
<!DOCTYPE svg PUBLIC "-//W3C//DTD SVG 1.1//EN" "http://www.w3.org/Graphics/SVG/1.1/DTD/svg11.dtd">
<svg version="1.1" xmlns="http://www.w3.org/2000/svg" xmlns:xlink="http://www.w3.org/1999/xlink" preserveAspectRatio="xMidYMid meet" viewBox="0 0 500 500" width="500" height="500"><defs><path d="M330.74 369.88L329.16 374.03L327.43 378.07L325.56 382.02L323.53 385.87L321.37 389.61L319.07 393.25L316.64 396.78L314.08 400.2L311.4 403.5L308.6 406.69L305.69 409.76L302.66 412.71L299.53 415.53L296.3 418.23L292.97 420.8L289.54 423.24L286.03 425.54L282.43 427.71L278.76 429.74L275.01 431.63L271.18 433.38L267.29 434.98L263.34 436.43L259.33 437.73L255.26 438.87L251.15 439.86L246.98 440.69L242.78 441.36L238.54 441.87L234.27 442.21L229.97 442.38L225.65 442.38L221.31 442.21L216.95 441.86L212.58 441.34L208.2 440.63L203.83 439.74L199.45 438.66L195.12 437.4L190.88 435.99L186.74 434.41L182.69 432.68L178.74 430.81L174.9 428.79L171.15 426.62L167.52 424.32L163.99 421.89L160.57 419.34L157.26 416.65L154.08 413.85L151.01 410.94L148.06 407.91L145.24 404.78L142.54 401.55L139.97 398.22L137.53 394.79L135.22 391.28L133.05 387.69L131.02 384.01L129.14 380.26L127.39 376.43L125.79 372.54L124.34 368.59L123.04 364.58L121.89 360.51L120.9 356.4L120.07 352.24L119.97 351.56L168.09 351.56L168.66 353.34L169.49 355.6L170.4 357.82L171.4 360.01L172.48 362.15L173.64 364.25L174.88 366.31L176.2 368.32L177.59 370.27L179.06 372.17L180.6 374.02L182.22 375.81L183.9 377.54L185.65 379.21L187.48 380.81L189.36 382.34L191.32 383.8L193.33 385.19L195.41 386.5L197.55 387.74L199.75 388.89L202.01 389.97L204.32 390.95L206.69 391.85L209.11 392.66L211.58 393.38L214.08 394L216.58 394.51L219.08 394.91L221.58 395.21L224.07 395.41L226.55 395.51L229.02 395.51L231.48 395.41L233.92 395.22L236.34 394.93L238.74 394.54L241.12 394.07L243.47 393.5L245.8 392.85L248.09 392.11L250.35 391.28L252.57 390.36L254.76 389.36L256.9 388.29L259 387.13L261.06 385.89L263.06 384.57L265.02 383.18L266.92 381.71L268.77 380.17L270.56 378.55L272.29 376.87L273.95 375.11L275.55 373.29L277.09 371.4L278.55 369.45L279.94 367.43L281.25 365.35L282.49 363.22L283.64 361.02L284.71 358.76L285.7 356.45L286.6 354.08L287.41 351.66L288.13 349.19L288.13 349.19L320.99 226.56L191.58 226.56L170.64 304.69L122.11 304.69L143.05 226.56L62.5 226.56L62.5 179.69L155.61 179.69L166.59 138.68L188.36 144.52L166.59 138.68L167.85 134.35L169.26 130.12L170.84 125.97L172.57 121.93L174.44 117.98L176.47 114.13L178.63 110.39L180.93 106.75L183.36 103.22L185.92 99.8L188.6 96.5L191.4 93.31L194.31 90.24L197.34 87.29L200.47 84.47L203.7 81.77L207.03 79.2L210.46 76.76L213.97 74.46L217.57 72.29L221.24 70.26L224.99 68.37L228.82 66.62L232.71 65.02L236.66 63.57L240.67 62.27L244.74 61.13L248.85 60.14L253.02 59.31L257.22 58.64L261.46 58.13L265.73 57.79L270.03 57.62L274.35 57.62L278.69 57.79L283.05 58.14L287.42 58.66L291.8 59.37L296.17 60.26L300.55 61.34L304.88 62.6L309.12 64.01L313.26 65.59L317.31 67.32L321.26 69.19L325.1 71.21L328.85 73.38L332.48 75.68L336.01 78.11L339.43 80.66L342.74 83.35L345.92 86.15L348.99 89.06L351.94 92.09L354.76 95.22L357.46 98.45L360.03 101.78L362.47 105.21L364.78 108.72L366.95 112.31L368.98 115.99L370.86 119.74L372.61 123.57L374.21 127.46L375.66 131.41L376.11 132.81L324.54 132.81L323.8 131.68L322.41 129.73L320.94 127.83L319.4 125.98L317.78 124.19L316.1 122.46L314.35 120.79L312.52 119.19L310.64 117.66L308.68 116.2L306.67 114.81L304.59 113.5L302.45 112.26L300.25 111.11L297.99 110.03L295.68 109.05L293.31 108.15L290.89 107.34L288.42 106.62L285.92 106L283.42 105.49L280.92 105.09L278.42 104.79L275.93 104.59L273.45 104.49L270.98 104.49L268.52 104.59L266.08 104.78L263.66 105.07L261.26 105.46L258.88 105.93L256.53 106.5L254.2 107.15L251.91 107.89L249.65 108.72L247.43 109.64L245.24 110.64L243.1 111.71L241 112.87L238.94 114.11L236.94 115.43L234.98 116.82L233.08 118.29L231.23 119.83L229.44 121.45L227.71 123.13L226.05 124.89L224.45 126.71L222.91 128.6L221.45 130.55L220.06 132.57L218.75 134.65L217.51 136.78L216.36 138.98L215.29 141.24L214.3 143.55L213.4 145.92L212.59 148.34L211.87 150.81L211.87 150.82L204.14 179.69L437.5 179.69L437.5 226.56L369.51 226.56L333.41 361.32L288.13 349.19L333.41 361.32L332.15 365.65L330.74 369.88Z" id="b4qJfmC8yy"></path></defs><g><g><g><use xlink:href="#b4qJfmC8yy" opacity="1" fill="#f3df49" fill-opacity="1"></use></g></g></g></svg>